<?xml version="1.0" encoding="iso-8859-1"?>
<!-- Generator: Adobe Illustrator 19.0.0, SVG Export Plug-In . SVG Version: 6.00 Build 0)  -->
<svg version="1.1" id="Layer_1" xmlns="http://www.w3.org/2000/svg" xmlns:xlink="http://www.w3.org/1999/xlink" x="0px" y="0px"
	 viewBox="0 0 512 512" style="enable-background:new 0 0 512 512;" xml:space="preserve">
<g>
	<g>
		<path d="M501.801,47.923H10.199C4.566,47.923,0,52.489,0,58.122v322.581c0,5.633,4.566,10.199,10.199,10.199h179.845v52.775
			h-36.179c-5.633,0-10.199,4.566-10.199,10.199c0,5.633,4.566,10.199,10.199,10.199h204.27v0.001
			c5.633,0,10.199-4.566,10.199-10.199c0-5.633-4.566-10.199-10.199-10.199h-36.179v-52.775h179.845
			c5.633,0,10.199-4.566,10.199-10.199V58.122C512,52.489,507.434,47.923,501.801,47.923z M301.558,443.679h-91.116v-52.775h91.116
			V443.679z M491.602,370.504H20.398V68.321h471.203V370.504z"/>
	</g>
</g>
<g>
	<g>
		<path d="M421.928,320.005h-8.351v-207.26c0-5.633-4.566-10.199-10.199-10.199h-70.082c-5.633,0-10.199,4.566-10.199,10.199v207.26
			H301.24V171.49c0-5.633-4.566-10.199-10.199-10.199h-70.082c-5.633,0-10.199,4.566-10.199,10.199v148.515h-21.857v-87.709
			c0-5.633-4.566-10.199-10.199-10.199h-70.082c-5.633,0-10.199,4.566-10.199,10.199v87.709H61.215
			c-5.633,0-10.199,4.566-10.199,10.199c0,5.633,4.566,10.199,10.199,10.199h360.713c5.633,0,10.199-4.566,10.199-10.199
			C432.127,324.571,427.561,320.005,421.928,320.005z M168.505,320.005h-49.683c0,0,0-77.51,0-77.51h49.683V320.005z
			 M280.842,320.005h-49.683V181.69h49.683V320.005z M393.178,320.005h-49.683V122.944h49.683V320.005z"/>
	</g>
</g>
<g>
	<g>
		<path d="M459.03,320.005h-4.122c-5.633,0-10.199,4.566-10.199,10.199c0,5.633,4.566,10.199,10.199,10.199h4.122
			c5.633,0,10.199-4.566,10.199-10.199C469.23,324.571,464.664,320.005,459.03,320.005z"/>
	</g>
</g>
<g>
</g>
<g>
</g>
<g>
</g>
<g>
</g>
<g>
</g>
<g>
</g>
<g>
</g>
<g>
</g>
<g>
</g>
<g>
</g>
<g>
</g>
<g>
</g>
<g>
</g>
<g>
</g>
<g>
</g>
</svg>
